<svg xmlns="http://www.w3.org/2000/svg" viewBox="0 0 480.000000 480.000000">
<g transform="translate(0.000000,480.000000) scale(0.100000,-0.100000)"
fill="#000000" stroke="#ffffff" stroke-width="70">
<path d="M2310 4284 c-252 -67 -343 -381 -166 -571 16 -18 28 -34 25 -36 -2
-2 -49 -29 -104 -60 -329 -183 -559 -449 -651 -753 -35 -115 -41 -347 -11
-454 40 -144 129 -281 237 -361 30 -23 57 -43 59 -45 2 -1 -18 -27 -43 -56
-57 -65 -111 -169 -126 -245 -7 -32 -19 -87 -27 -122 -15 -64 -8 -150 17 -215
33 -87 199 -166 485 -232 29 -7 29 -7 -15 -16 -72 -13 -341 -28 -515 -28 -303
0 -550 -34 -672 -92 -113 -52 -243 -190 -243 -256 0 -49 84 -132 153 -151 61
-17 180 -9 263 18 112 36 242 44 629 36 396 -7 558 1 708 39 l87 22 88 -22
c149 -38 311 -46 707 -39 387 8 517 0 629 -36 83 -27 202 -35 263 -18 71 19
153 103 153 155 0 90 -248 265 -435 307 -95 22 -296 37 -484 37 -170 0 -440
15 -511 28 -44 9 -44 9 -15 16 17 4 75 18 130 32 164 39 330 132 355 200 25
66 32 151 16 215 -8 35 -20 90 -26 122 -15 76 -68 179 -127 246 l-47 54 24 16
c309 204 390 634 194 1025 -114 227 -317 427 -586 577 -51 29 -95 54 -97 56
-3 2 9 18 25 36 144 155 116 401 -59 521 -88 60 -185 77 -287 50z"/>
</g>
</svg>
