<svg xmlns="http://www.w3.org/2000/svg" viewBox="0 0 480.000000 480.000000">
<g transform="translate(0.000000,480.000000) scale(0.100000,-0.100000)"
fill="#000000" stroke="#ffffff" stroke-width="70">
<path d="M2342 4217 c-19 -20 -22 -35 -22 -105 l0 -82 -100 0 c-109 0 -142
-10 -159 -47 -17 -36 -13 -59 13 -90 23 -27 28 -28 135 -31 l111 -4 0 -131 0
-132 -58 -24 c-86 -37 -188 -143 -240 -251 -50 -101 -65 -189 -53 -300 5 -41
7 -76 6 -78 -1 -1 -26 14 -56 34 -127 86 -309 162 -449 188 -383 73 -696 -79
-856 -417 -181 -382 -23 -774 433 -1080 l92 -62 1 -385 c0 -335 2 -389 16
-408 31 -45 298 -163 496 -221 249 -73 418 -96 698 -96 248 0 363 13 578 66
214 52 546 183 600 236 l22 22 0 365 0 364 82 52 c504 320 712 703 583 1073
-55 160 -212 328 -386 415 -138 69 -197 84 -359 89 -208 7 -378 -35 -564 -142
l-79 -45 6 53 c23 198 -120 452 -295 528 l-58 24 0 132 0 131 111 4 c107 3
112 4 135 31 26 31 30 54 13 90 -17 37 -50 47 -159 47 l-100 0 0 83 c0 74 -3
86 -23 105 -32 30 -87 29 -115 -1z"/>
</g>
</svg>
