<svg xmlns="http://www.w3.org/2000/svg" viewBox="0 0 480.000000 480.000000">
<g transform="translate(0.000000,480.000000) scale(0.100000,-0.100000)"
fill="#000000" stroke="#ffffff" stroke-width="70">
<path d="M2161 4099 c-74 -49 -155 -137 -202 -218 l-34 -60 -61 -1 -60 0 -47
69 c-56 82 -153 176 -201 196 -67 28 -136 15 -180 -34 -30 -33 -29 -242 2
-328 12 -34 22 -70 22 -79 0 -31 -72 -154 -133 -225 -125 -150 -541 -906 -657
-1194 -50 -127 -63 -241 -40 -369 43 -244 171 -353 404 -344 l92 3 18 -38 c23
-47 60 -67 129 -67 114 0 168 38 304 210 109 137 129 156 312 284 166 117 335
253 459 371 l102 97 0 -33 c0 -57 -30 -210 -56 -289 -65 -193 -132 -289 -379
-540 -218 -222 -279 -298 -341 -425 -58 -120 -84 -225 -91 -363 -6 -108 -5
-114 17 -137 l23 -25 1262 0 c1253 0 1261 0 1283 20 34 32 35 52 29 429 -12
686 -76 1147 -218 1565 -238 700 -687 1099 -1369 1215 -119 20 -130 27 -130
76 0 103 -61 227 -123 256 -58 26 -67 24 -136 -22z"/>
</g>
</svg>
