<svg xmlns="http://www.w3.org/2000/svg" viewBox="0 0 480.000000 480.000000">
<g transform="translate(0.000000,480.000000) scale(0.100000,-0.100000)"
fill="#000000" stroke="#ffffff" stroke-width="70">
<path d="M2276 3909 c-281 -66 -455 -388 -357 -663 l21 -59 -60 -55 c-287
-259 -334 -701 -109 -1023 23 -32 40 -61 38 -63 -2 -1 -33 -22 -69 -46 -94
-63 -249 -218 -322 -321 -206 -291 -310 -615 -325 -1017 l-6 -162 1313 0 1313
0 -6 162 c-15 402 -119 726 -325 1017 -73 103 -228 258 -322 321 -36 24 -67
45 -69 46 -2 2 14 30 36 61 104 149 145 277 145 453 0 225 -87 424 -252 572
l-60 55 20 59 c96 278 -67 584 -351 659 -60 16 -192 18 -253 4z"/>
</g>
</svg>
