<svg xmlns="http://www.w3.org/2000/svg" viewBox="0 0 480.000000 480.000000">
<g transform="translate(0.000000,480.000000) scale(0.100000,-0.100000)"
fill="#000000" stroke="#ffffff" stroke-width="70">
<path d="M2293 4224 c-139 -50 -227 -240 -173 -374 30 -77 111 -162 171 -182
8 -3 -225 -1165 -235 -1175 -3 -3 -404 1042 -412 1075 -4 12 3 23 22 32 72 39
131 169 121 266 -27 259 -344 363 -516 168 -133 -152 -70 -404 118 -471 l52
-18 -7 -285 c-3 -157 -9 -413 -13 -570 l-6 -284 -287 441 c-159 242 -288 445
-288 450 0 5 11 20 24 32 41 38 69 118 69 191 0 262 -318 393 -501 207 -167
-171 -81 -447 156 -498 l49 -10 118 -587 c64 -323 121 -615 125 -649 12 -94
47 -157 144 -257 47 -50 105 -121 128 -159 24 -38 52 -83 62 -99 18 -28 18
-36 7 -107 -12 -69 -17 -80 -64 -131 -47 -52 -107 -157 -107 -189 0 -8 -16
-45 -35 -82 -60 -116 -43 -204 54 -291 57 -51 149 -86 401 -150 598 -151 1262
-151 1860 0 244 62 346 99 381 139 75 86 88 172 40 269 -17 34 -31 83 -34 116
-7 71 -37 139 -87 199 -52 62 -75 178 -44 227 10 16 38 61 61 99 24 37 81 108
128 158 97 101 133 166 145 257 4 35 61 327 125 650 l118 587 49 10 c237 51
323 327 156 498 -183 186 -501 55 -501 -207 0 -73 28 -153 69 -191 13 -12 24
-27 24 -32 0 -6 -129 -208 -287 -451 l-288 -441 -6 285 c-4 157 -10 413 -13
570 l-7 285 52 18 c188 67 251 319 118 471 -172 195 -489 91 -516 -168 -10
-97 49 -227 121 -265 14 -8 26 -18 26 -23 0 -12 -413 -1089 -416 -1085 -10 10
-243 1172 -235 1175 33 11 106 71 131 108 139 201 -1 466 -244 463 -34 0 -80
-7 -103 -15z"/>
</g>
</svg>
