<svg xmlns="http://www.w3.org/2000/svg" viewBox="0 0 480.000000 480.000000">
<g transform="translate(0.000000,480.000000) scale(0.100000,-0.100000)"
fill="#ffffff" stroke="#000000" stroke-width="70">
<path d="M2310 4284 c-252 -67 -343 -381 -166 -571 16 -18 28 -34 25 -36 -2
-2 -49 -29 -104 -60 -329 -183 -559 -449 -651 -753 -35 -115 -41 -347 -11
-454 40 -144 129 -281 237 -361 30 -23 57 -43 59 -45 2 -1 -18 -27 -43 -56
-57 -65 -111 -169 -126 -245 -7 -32 -19 -87 -27 -122 -15 -64 -8 -150 17 -215
32 -85 241 -186 468 -228 l67 -12 -85 -13 c-47 -6 -246 -17 -444 -23 -563 -17
-703 -47 -850 -181 -127 -116 -143 -166 -76 -241 79 -90 215 -112 375 -60 104
34 254 42 700 40 432 -3 508 2 642 39 72 20 94 20 166 0 134 -37 210 -42 642
-39 446 2 596 -6 700 -40 33 -10 99 -22 147 -25 81 -5 91 -4 142 21 72 35 126
97 126 145 0 80 -244 258 -410 299 -95 23 -217 32 -560 43 -195 5 -393 16
-440 22 l-85 13 70 13 c234 45 433 142 465 227 25 66 32 151 16 215 -8 35 -20
90 -26 122 -15 76 -68 179 -127 246 l-47 54 24 16 c309 204 390 634 194 1025
-114 227 -317 427 -586 577 -51 29 -95 54 -97 56 -3 2 9 18 25 36 144 155 116
401 -59 521 -88 60 -185 77 -287 50z"/>
</g>
</svg>
