<svg xmlns="http://www.w3.org/2000/svg" viewBox="0 0 480.000000 480.000000">
<g transform="translate(0.000000,480.000000) scale(0.100000,-0.100000)"
fill="#ffffff" stroke="#000000" stroke-width="70">
<path d="M2342 4217 c-19 -20 -22 -35 -22 -105 l0 -82 -100 0 c-109 0 -142
-10 -159 -47 -17 -36 -13 -59 13 -90 23 -27 28 -28 135 -31 l111 -4 0 -131 0
-132 -58 -24 c-86 -37 -188 -143 -240 -251 -50 -101 -65 -189 -53 -300 5 -41
7 -77 5 -78 -1 -2 -29 14 -61 36 -207 141 -432 208 -663 200 -252 -10 -446
-119 -578 -326 -263 -411 -122 -854 375 -1185 l93 -62 0 -389 0 -389 35 -32
c71 -67 313 -171 524 -225 217 -56 369 -73 636 -74 323 -1 548 31 800 115 132
43 357 150 392 185 l23 23 0 364 0 365 93 59 c331 213 550 476 597 720 19 97
9 253 -23 342 -76 214 -296 411 -539 482 -111 32 -313 37 -438 11 -117 -25
-231 -68 -334 -127 l-79 -45 6 53 c23 198 -120 452 -295 528 l-58 24 0 132 0
131 111 4 c107 3 112 4 135 31 26 31 30 54 13 90 -17 37 -50 47 -159 47 l-100
0 0 83 c0 74 -3 86 -23 105 -32 30 -87 29 -115 -1z"/>
</g>
</svg>
