<svg xmlns="http://www.w3.org/2000/svg" viewBox="0 0 480.000000 480.000000">
<g transform="translate(0.000000,480.000000) scale(0.100000,-0.100000)"
fill="#ffffff" stroke="#000000" stroke-width="70">
<path d="M2267 3905 c-281 -77 -444 -386 -348 -660 l21 -59 -60 -54 c-68 -61
-133 -147 -180 -241 -122 -244 -90 -571 76 -790 19 -24 34 -47 34 -50 0 -3
-28 -24 -63 -46 -93 -59 -282 -253 -356 -364 -189 -286 -283 -596 -298 -979
l-6 -162 1311 0 1312 0 0 103 c0 293 -74 617 -198 863 -100 199 -296 430 -452
534 -36 24 -67 45 -69 46 -2 2 14 30 36 61 104 149 145 278 145 453 0 225 -89
426 -252 572 l-60 54 21 59 c96 276 -68 585 -352 660 -66 18 -197 18 -262 0z"/>
</g>
</svg>
