<svg xmlns="http://www.w3.org/2000/svg" viewBox="0 0 480.000000 480.000000">
<g transform="translate(0.000000,480.000000) scale(0.100000,-0.100000)"
fill="#ffffff" stroke="#000000" stroke-width="70">
<path d="M2337 4290 c-266 -67 -315 -427 -74 -551 20 -11 37 -23 37 -27 -1 -4
-56 -281 -124 -617 -111 -550 -124 -607 -135 -580 -7 17 -107 271 -222 565
l-210 535 23 14 c61 39 127 120 144 177 83 286 -256 505 -475 308 -70 -63 -93
-111 -99 -205 -7 -123 47 -220 153 -275 l55 -29 0 -589 c0 -336 -4 -586 -9
-580 -17 18 -551 864 -551 872 0 5 9 17 19 26 35 32 64 116 64 186 0 262 -318
393 -501 207 -177 -181 -67 -474 189 -503 l56 -6 98 -587 c54 -322 101 -614
105 -648 12 -94 47 -157 144 -257 47 -50 105 -121 128 -159 24 -38 52 -83 62
-99 18 -28 18 -36 7 -107 -12 -69 -17 -80 -64 -131 -47 -52 -107 -157 -107
-189 0 -8 -16 -45 -35 -82 -55 -107 -45 -191 33 -272 65 -67 99 -78 347 -107
551 -63 1360 -65 1960 -4 310 31 334 39 389 127 44 72 47 140 8 220 -17 36
-32 86 -35 119 -7 71 -37 140 -87 199 -52 62 -75 178 -44 227 10 16 38 61 61
99 24 37 81 108 128 158 97 101 133 166 145 257 4 35 51 327 105 649 l98 587
56 6 c256 29 366 322 189 503 -183 186 -501 55 -501 -207 0 -70 29 -154 64
-186 10 -9 19 -21 19 -26 0 -8 -534 -854 -551 -872 -5 -6 -9 233 -9 555 l0
565 37 13 c55 20 136 106 156 165 104 305 -262 537 -489 310 -129 -128 -100
-360 55 -454 28 -17 39 -30 36 -40 -32 -88 -431 -1060 -435 -1060 -3 0 -59
269 -124 598 -66 328 -121 605 -124 614 -3 11 8 23 35 36 174 91 211 332 70
470 -71 70 -182 103 -270 82z"/>
</g>
</svg>
